<?xml version="1.0" encoding="utf-8"?>
<svg version="1.1" xmlns="http://www.w3.org/2000/svg" xmlns:xlink="http://www.w3.org/1999/xlink" height="18" width="26">
  <defs>
    <path id="path-0" opacity="1" d="M13,5 C10.790860900000098,5 9,6.790860899999984 9,9 C9,9.308985600000028 9.035034199999927,9.60978849999998 9.101346899999953,9.89865309999999 L10,9 C9.99999989999992,8.232233099999974 10.29289319999998,7.4644660999999815 10.87867970000002,6.878679700000021 C11.46446600000013,6.292893299999946 12.232232837868196,6 13,6 L13.898653100000047,5.10134690000001 C13.609788499999922,5.035034199999984 13.308985599999914,5 13,5 L13,5ZM16.898653100000047,8.10134690000001 L16,9 C16.000000099999852,9.767766900000026 15.70710680000002,10.535533900000019 15.12132029999998,11.121320300000036 C14.53553399999987,11.707106700000054 13.767767162131804,12 13,12 L12.101346899999953,12.89865309999999 C12.39021149999985,12.964965800000016 12.691014399999858,13 13,13 C15.209139099999902,13 17,11.209139100000016 17,9 C17,8.691014400000029 16.964965799999845,8.39021150000002 16.898653100000047,8.10134690000001 L16.898653100000047,8.10134690000001ZM13,2 C4,2 0,9 0,9 C0,9 1.6172081600000183,11.830114700000024 5.10869890999993,13.891301100000021 L5.844927130000087,13.155072899999993 C2.714728079999986,11.391722500000014 1.1999511700000767,9 1.1999511700000767,9 C1.1999511700000767,9 5,3 13,3 C13.980092900000045,3 14.897148400000106,3.0900545999999736 15.751901699999962,3.248098299999981 L16.601438800000096,2.3985612199999764 C15.503975200000014,2.1470646600000123 14.304510700000037,2 13,2 L13,2ZM20.891300799999954,4.10869919999999 L20.15507269999989,4.844927299999995 C23.285271899999998,6.608277600000008 24.800048800000013,9 24.800048800000013,9 C24.800048800000013,9 21,14.999999000000003 12.999998367504304,15.000000000000057 C12.999999455834768,15.000000000000057 11.102851025425707,14.909945412251375 10.24809809999988,14.751901900000007 L9.398560999999972,15.60143899999997 C10.496024226877125,15.852935514494504 11.695488384396413,16.000000000000057 13,16 C12.999999112967771,16.000000000000057 26,9 26,9 C26,9 24.38279179999995,6.169885599999986 20.891300799999954,4.10869919999999 L20.891300799999954,4.10869919999999ZM21,0 L4,17 L5,18 L22,1 L21,0 L21,0Z"/>
  </defs>
  <g opacity="1">
    <g opacity="1">
      <use xlink:href="#path-0" fill="rgb(155,155,155)" fill-opacity="1"/>
    </g>
  </g>
</svg>